<?xml version="1.0" standalone="no"?><!DOCTYPE svg PUBLIC "-//W3C//DTD SVG 1.1//EN" "http://www.w3.org/Graphics/SVG/1.1/DTD/svg11.dtd"><svg class="icon" width="200px" height="200.00px" viewBox="0 0 1024 1024" version="1.1" xmlns="http://www.w3.org/2000/svg"><path fill="#515151" d="M742.4 825.6h83.2V198.4h-83.2v627.2z m160 6.4a70.4 70.4 0 0 1-70.4 70.4h-96a70.4 70.4 0 0 1-70.4-70.4V192a70.4 70.4 0 0 1 70.4-70.4H832A70.4 70.4 0 0 1 902.4 192v640zM470.4 825.6h83.2V390.4h-83.2v435.2z m160 6.4a70.4 70.4 0 0 1-70.4 70.4h-96a70.4 70.4 0 0 1-70.4-70.4V384a70.4 70.4 0 0 1 70.4-70.4h96A70.4 70.4 0 0 1 630.4 384v448zM281.6 784a41.6 41.6 0 1 0-83.2 0 41.6 41.6 0 0 0 83.2 0z m76.8 0a118.4 118.4 0 1 1-236.8 0 118.4 118.4 0 0 1 236.8 0z"  /></svg>