<?xml version="1.0" standalone="no"?><!DOCTYPE svg PUBLIC "-//W3C//DTD SVG 1.1//EN" "http://www.w3.org/Graphics/SVG/1.1/DTD/svg11.dtd"><svg class="icon" width="200px" height="200.00px" viewBox="0 0 1024 1024" version="1.1" xmlns="http://www.w3.org/2000/svg"><path fill="#515151" d="M512.255872 25.075462c269.177411 0 487.18041 218.002999 487.18041 487.18041s-218.002999 487.18041-487.18041 487.18041-487.18041-218.514743-487.18041-487.18041c0-269.177411 218.002999-487.18041 487.18041-487.18041m0-20.469765C231.82009 4.605697 4.605697 231.82009 4.605697 512.255872s227.214393 507.650175 507.650175 507.650175 507.650175-227.214393 507.650175-507.650175c0-280.435782-227.214393-507.650175-507.650175-507.650175z"  /><path fill="#515151" d="M266.106947 751.752124h-22.516742l189.857071-480.015992h22.516742l189.857071 480.015992h-22.516741L444.705647 299.882059 266.106947 751.752124z m181.157421-402.230885l11.770115 26.610695-148.405797 375.62019h-22.004998l158.64068-402.230885zM470.804598 404.789605l11.258371 28.657671-125.889056 318.304848h-22.516742L470.804598 404.789605z m22.004997 57.315343l11.258371 29.169415-102.86057 260.477761H378.690655l114.11894-289.647176z m-56.803598 232.331834l8.187906-20.98151h136.635682l8.69965 20.98151h-153.523238z m16.375812-41.963019l8.187906-20.981509h103.884058l9.211394 20.981509H452.381809z m15.864068-41.451274l8.187906-20.981509H547.566217l8.187906 20.981509H468.245877z m32.751624-338.774613L690.854573 752.263868h-22.516742l-189.345327-480.015992h22.004997z m44.521739 0l189.857072 480.015992h-22.516742l-189.857071-480.015992h22.516741z m234.890555 480.015992h-22.516742l-189.345327-480.015992h22.516742l189.345327 480.015992z"  /></svg>