<?xml version="1.0" standalone="no"?><!DOCTYPE svg PUBLIC "-//W3C//DTD SVG 1.1//EN" "http://www.w3.org/Graphics/SVG/1.1/DTD/svg11.dtd"><svg class="icon" width="200px" height="200.00px" viewBox="0 0 1024 1024" version="1.1" xmlns="http://www.w3.org/2000/svg"><path fill="#515151" d="M512.255872 25.075462c269.177411 0 487.18041 218.002999 487.18041 487.18041s-218.002999 487.18041-487.18041 487.18041-487.18041-218.514743-487.18041-487.18041c0-269.177411 218.002999-487.18041 487.18041-487.18041m0-20.469765C231.82009 4.605697 4.605697 231.82009 4.605697 512.255872s227.214393 507.650175 507.650175 507.650175 507.650175-227.214393 507.650175-507.650175c0-280.435782-227.214393-507.650175-507.650175-507.650175z"  /><path fill="#515151" d="M698.018991 513.791104c16.375812-21.493253 25.587206-47.592204 25.587206-74.714642 0-25.587206-7.164418-51.174413-20.981509-72.667666-13.817091-22.516742-32.751624-40.93953-55.78011-53.733134-23.028486-13.305347-48.615692-19.958021-75.226387-19.958021h-271.224388v459.034483h-20.981509V272.247876h292.205897c30.192904 0 59.362319 7.676162 85.461269 22.516742s48.103948 35.822089 63.456272 61.409295c15.352324 25.075462 23.54023 53.733133 23.54023 83.414293 0.511744 27.122439-8.187906 53.221389-24.051974 74.714643 14.84058 19.446277 23.54023 43.498251 24.051974 68.061969 0.511744 24.563718-4.605697 48.615692-13.817091 71.132433-8.69965 20.469765-21.493253 38.892554-37.357322 53.733134-15.864068 14.328836-34.798601 25.587206-54.756621 33.263368-21.493253 8.187906-44.009995 12.281859-66.526737 11.770115H437.029485v-20.981509h134.588706c19.958021 0 39.916042-4.093953 58.33883-11.258371 17.911044-7.164418 34.286857-17.911044 48.615693-31.216392 13.817091-13.305347 25.075462-29.681159 32.751624-47.592204 8.187906-18.422789 12.281859-38.892554 12.281859-59.362319-0.511744-11.258371-2.558721-22.516742-6.652674-33.263368-4.093953-12.793603-10.234883-24.563718-18.934532-34.798601z m5.117441-74.714642c0 27.122439-10.234883 53.733133-28.657671 73.691154 18.934533 21.493253 28.657671 44.521739 28.657671 69.085457 0 23.028486-6.14093 46.056972-17.911045 66.014993-11.770115 19.446277-28.145927 35.310345-48.103948 46.056971s-41.963018 16.375812-64.991504 16.375813H437.029485v-20.98151h134.588706c28.657671 0.511744 56.803598-10.234883 77.785107-30.192903 21.493253-19.958021 33.263368-48.103948 32.751625-77.273364-0.511744-12.793603-3.070465-25.587206-8.699651-37.357321-4.605697-12.281859-12.793603-23.028486-23.54023-31.216392 40.427786-37.357321 42.986507-100.813593 5.629186-141.241379-2.046977-2.046977-4.093953-4.605697-6.652674-6.652674-20.469765-19.958021-48.103948-31.216392-77.273363-31.216391H342.356822v417.583208h-20.98151V313.69915h250.242879c46.056972 0 88.531734 24.051974 113.095452 62.944528 11.770115 18.422789 17.911044 40.427786 18.422789 62.432784z m-266.106947 66.014992h134.588706c17.911044 0.511744 35.310345-5.629185 48.615692-17.3993 13.305347-11.258371 19.958021-27.634183 19.958021-48.615692 0-16.887556-7.676162-33.263368-20.469765-44.009995-12.793603-12.281859-30.192904-18.934533-47.592204-18.934533H383.808096v375.62019h-20.981509V355.150425h208.791604c23.54023 0 45.545227 8.69965 62.432784 25.075462 16.887556 14.84058 26.610695 36.333833 26.610694 58.850575 0.511744 16.375812-4.093953 32.23988-12.281859 46.056971-8.187906 12.793603-19.446277 23.54023-32.751624 30.192904 30.192904 10.746627 45.545227 32.751624 45.545227 66.014992 0 26.098951-8.69965 47.08046-26.09895 62.944528s-39.916042 24.051974-62.944528 23.54023H437.029485v-20.981509h134.588706c17.911044 0.511744 35.310345-5.629185 48.615692-17.399301 13.305347-11.258371 19.958021-27.634183 19.958021-48.615692 0-13.817091-5.629185-27.634183-15.352324-37.357321-10.234883-10.746627-24.563718-16.887556-44.521739-18.934533-2.046977 0-5.117441 0.511744-9.211394 0.511744H437.029485v-19.958021z m-11.258371 246.66067h-20.981509V397.113443h166.828586c12.281859-0.511744 24.563718 4.093953 33.775112 11.770115 9.211394 7.164418 14.328836 18.422789 13.817092 30.192904 0 15.864068-4.093953 27.122439-13.305348 34.286856-9.723138 7.676162-22.004998 11.258371-34.286856 10.746627H437.029485v-20.981509h134.588706c17.911044 0 26.610695-8.187906 26.610695-24.051974 0-6.14093-2.558721-11.770115-7.676162-15.352324-5.629185-4.093953-12.281859-6.14093-18.934533-5.629185H425.771114v333.657171z m172.457772-167.34033c0-7.676162-2.046977-12.281859-6.652674-14.84058-6.14093-3.070465-12.793603-4.093953-19.958021-3.582209H437.029485v-20.981509h134.588706c31.728136 0 47.592204 13.305347 47.592204 39.916042 0 14.84058-4.093953 25.587206-13.305348 32.23988-10.234883 7.164418-22.004998 10.746627-34.286856 9.723139H437.029485v-20.98151h134.588706c17.911044 0 26.610695-7.164418 26.610695-21.493253z"  /></svg>